<svg id="Layer_1" data-name="Layer 1" xmlns="http://www.w3.org/2000/svg" viewBox="0 0 25 25"><path d="M21.59,14.21H8.82L8.09,8.74h-2l1,7.21H19.85a1.66,1.66,0,0,0,1.56-1.11l.22-.63Zm0,0" fill="#d4e1f4"/><path d="M.91,5.23H3.38A1.65,1.65,0,0,1,5,6.62L6.37,16.76H19.85a2.48,2.48,0,0,0,2.33-1.66l2.3-6.63a.41.41,0,0,0-.06-.37.38.38,0,0,0-.33-.17H6L5.82,6.51h0A2.46,2.46,0,0,0,3.38,4.42H.91a.41.41,0,1,0,0,.81ZM23.52,8.74l-2.11,6.1A1.66,1.66,0,0,1,19.85,16H7.08l-1-7.21Zm0,0" fill="#232c58" stroke="#232c58" stroke-miterlimit="10" stroke-width="0.7"/><path d="M18.16,24.54a2.91,2.91,0,1,1,2.91-2.9,2.9,2.9,0,0,1-2.91,2.9Zm0-4.52a1.62,1.62,0,1,0,1.62,1.62A1.62,1.62,0,0,0,18.16,20Zm0,0" fill="#e84b1e"/><path d="M10,24.54a2.91,2.91,0,1,1,2.91-2.9A2.9,2.9,0,0,1,10,24.54ZM10,20a1.62,1.62,0,1,0,1.62,1.62A1.62,1.62,0,0,0,10,20Zm0,0" fill="#e84b1e"/><ellipse cx="14.92" cy="8.24" rx="4.7" ry="4.7" fill="#fff" stroke="#e84b1e" stroke-miterlimit="10" stroke-width="1.03"/><path d="M17.13,9.64,15.78,8.29,17.07,7a.59.59,0,1,0-.83-.83L15,7.46,13.61,6.12a.6.6,0,0,0-.84,0,.59.59,0,0,0,0,.83l1.34,1.34-1.4,1.4a.59.59,0,0,0,0,.83.6.6,0,0,0,.84,0L15,9.13l1.35,1.35a.59.59,0,1,0,.83-.84Z" fill="#232c58"/></svg>