<svg id="Layer_1" data-name="Layer 1" xmlns="http://www.w3.org/2000/svg" viewBox="0 0 25 25"><path d="M7.27,18.77H4.69a.92.92,0,0,1-.82-1V6.42H2.19a.92.92,0,0,0-.81,1V20.06a.91.91,0,0,0,.81,1H3.5l0-.16H8.26l0,.16h4.93V18.77Z" fill="#d4e1f4"/><path d="M2.19,22H3.5A.54.54,0,0,0,3.5,21H2.19a.92.92,0,0,1-.82-1V7.34a.92.92,0,0,1,.82-1H12.4a.91.91,0,0,1,.82,1V21H8.75a.54.54,0,0,0,0,1.06H16.5a.54.54,0,0,0,0-1.06H14.09V13.73h9.53V20a.91.91,0,0,1-.81,1H21.5a.54.54,0,0,0,0,1.06h1.31A1.9,1.9,0,0,0,24.5,20V13.2h0v-.31l0,0h0L21.17,8.59a1.6,1.6,0,0,0-1.25-.66H14.09V7.34a1.88,1.88,0,0,0-1.69-2H2.19a1.89,1.89,0,0,0-1.69,2V20A1.9,1.9,0,0,0,2.19,22ZM14.09,9h5.83a.73.73,0,0,1,.6.32l2.55,3.36h-9Zm0,0" fill="#232c58" stroke="#232c58" stroke-miterlimit="10" stroke-width="0.34"/><ellipse cx="6.14" cy="21.68" rx="2.11" ry="2.12" fill="#fff"/><path d="M19,24.41a2.87,2.87,0,1,1,2.86-2.86A2.86,2.86,0,0,1,19,24.41Zm0-4.77a1.91,1.91,0,1,0,1.91,1.91A1.9,1.9,0,0,0,19,19.64Zm0,0" fill="#e84b1e" stroke="#e84b1e" stroke-miterlimit="10" stroke-width="0.13"/><path d="M6.15,24.5A2.87,2.87,0,1,1,9,21.63,2.86,2.86,0,0,1,6.15,24.5Zm0-4.78a1.91,1.91,0,1,0,1.9,1.91,1.92,1.92,0,0,0-1.9-1.91Zm0,0" fill="#e84b1e" stroke="#e84b1e" stroke-miterlimit="10" stroke-width="0.13"/><ellipse cx="7.3" cy="8.15" rx="4.64" ry="4.65" fill="#fff" stroke="#e84b1e" stroke-miterlimit="10" stroke-width="1.02"/><path d="M6.6,9l2.17-2.2c.16-.16.31-.32.48-.47a.58.58,0,0,1,.81,0,.56.56,0,0,1,0,.82c-1,1-2,2.05-3.05,3.07a.55.55,0,0,1-.82,0c-.48-.46-1-.94-1.42-1.43A.58.58,0,1,1,5.6,8C5.93,8.27,6.25,8.61,6.6,9Z" fill="#232c58"/></svg>