<svg id="Layer_1" data-name="Layer 1" xmlns="http://www.w3.org/2000/svg" viewBox="0 0 25 25"><path d="M21.59,14.37H8.82L8.09,8.9h-2l1,7.2H19.85A1.65,1.65,0,0,0,21.41,15l.22-.63Zm0,0" fill="#d4e1f4"/><path d="M.91,5.39H3.38A1.63,1.63,0,0,1,5,6.78L6.37,16.92H19.85a2.47,2.47,0,0,0,2.33-1.65l2.3-6.64a.39.39,0,0,0-.06-.36.38.38,0,0,0-.33-.17H6L5.82,6.66h0A2.45,2.45,0,0,0,3.38,4.58H.91a.41.41,0,1,0,0,.81ZM23.52,8.9,21.41,15a1.65,1.65,0,0,1-1.56,1.11H7.08l-1-7.2Zm0,0" fill="#232c58" stroke="#232c58" stroke-miterlimit="10" stroke-width="0.7"/><path d="M18.16,24.7a2.91,2.91,0,1,1,2.91-2.91,2.91,2.91,0,0,1-2.91,2.91Zm0-4.53a1.62,1.62,0,1,0,1.62,1.62,1.63,1.63,0,0,0-1.62-1.62Zm0,0" fill="#e84b1e"/><path d="M10,24.7a2.91,2.91,0,1,1,2.91-2.91A2.91,2.91,0,0,1,10,24.7Zm0-4.53a1.62,1.62,0,1,0,1.62,1.62A1.63,1.63,0,0,0,10,20.17Zm0,0" fill="#e84b1e"/><ellipse cx="14.92" cy="8.4" rx="4.7" ry="4.7" fill="#fff" stroke="#e84b1e" stroke-miterlimit="10" stroke-width="1.03"/><path d="M15.38,6.05a2.45,2.45,0,1,1-2.83,3.06" fill="none" stroke="#232c58" stroke-miterlimit="10" stroke-width="0.52"/><circle cx="15.41" cy="6.06" r="0.26" fill="#232c58"/><circle cx="14.31" cy="6.06" r="0.26" fill="#232c58"/><circle cx="13.27" cy="6.68" r="0.26" fill="#232c58"/><circle cx="12.65" cy="7.72" r="0.26" fill="#232c58"/><path d="M12.14,8.94,11.86,10a.27.27,0,0,0,.19.32.28.28,0,0,0,.33-.19l.22-.87.84.21a.27.27,0,0,0,.33-.19A.26.26,0,0,0,13.58,9l-1.06-.28A.31.31,0,0,0,12.14,8.94Z" fill="#232c58"/></svg>