<svg id="Layer_1" data-name="Layer 1" xmlns="http://www.w3.org/2000/svg" viewBox="0 0 25 25"><path d="M21.59,14.39H8.82L8.09,8.91h-2l1,7.22H19.85A1.66,1.66,0,0,0,21.41,15l.22-.63Zm0,0" fill="#d4e1f4"/><path d="M.91,5.4H3.38A1.65,1.65,0,0,1,5,6.79L6.37,17H19.85a2.48,2.48,0,0,0,2.33-1.66l2.3-6.64a.41.41,0,0,0-.06-.37.38.38,0,0,0-.33-.17H6L5.82,6.68h0A2.45,2.45,0,0,0,3.38,4.59H.91a.41.41,0,1,0,0,.81ZM23.52,8.91,21.41,15a1.66,1.66,0,0,1-1.56,1.11H7.08l-1-7.22Zm0,0" fill="#232c58" stroke="#232c58" stroke-miterlimit="10" stroke-width="0.7"/><path d="M18.16,24.74a2.91,2.91,0,1,1,2.91-2.91,2.91,2.91,0,0,1-2.91,2.91Zm0-4.53a1.62,1.62,0,1,0,1.62,1.62,1.62,1.62,0,0,0-1.62-1.62Zm0,0" fill="#e84b1e"/><path d="M10,24.74a2.91,2.91,0,1,1,2.91-2.91A2.91,2.91,0,0,1,10,24.74Zm0-4.53a1.62,1.62,0,1,0,1.62,1.62A1.62,1.62,0,0,0,10,20.21Zm0,0" fill="#e84b1e"/><circle cx="14.92" cy="8.41" r="4.7" fill="#fff" stroke="#e84b1e" stroke-miterlimit="10" stroke-width="1.03"/><path d="M14.22,9.25,16.42,7c.16-.16.31-.32.48-.47a.59.59,0,0,1,.83,0,.59.59,0,0,1,0,.83l-3.1,3.1a.56.56,0,0,1-.83,0c-.49-.48-1-1-1.44-1.46a.57.57,0,0,1,0-.85.58.58,0,0,1,.82,0C13.54,8.54,13.86,8.88,14.22,9.25Z" fill="#232c58"/></svg>